<?xml version="1.0" encoding="UTF-8" standalone="no"?> <!-- Created with Vectornator for iOS (http://vectornator.io/) --><!DOCTYPE svg PUBLIC "-//W3C//DTD SVG 1.1//EN" "http://www.w3.org/Graphics/SVG/1.1/DTD/svg11.dtd">
<svg style="fill-rule:evenodd;clip-rule:evenodd;stroke-linecap:round;stroke-linejoin:round;" xmlns:vectornator="http://vectornator.io" xmlns:xlink="http://www.w3.org/1999/xlink" xmlns="http://www.w3.org/2000/svg" xml:space="preserve" version="1.1" viewBox="0 0 505.191 649.422">
<metadata>
<vectornator:setting key="DisplayWhiteBackground" value="0"/>
<vectornator:setting key="RulersVisible" value="0"/>
<vectornator:setting key="Units" value="Points"/>
<vectornator:setting key="DynamicGuides" value="1"/>
<vectornator:setting key="GuidesVisible" value="1"/>
<vectornator:setting key="DimensionsVisible" value="1"/>
<vectornator:setting key="SnapToGuides" value="1"/>
<vectornator:setting key="GridSpacing" value="36"/>
</metadata>
<defs/>
<g id="Untitled" vectornator:layerName="Untitled">
<path d="M107.065+1.71779C106.149+1.66029+105.246+2.04529+104.784+3.03029C102.655+7.56929+103.404+12.955+102.909+17.874C102.886+18.105+102.85+18.3528+102.815+18.5928C101.502+14.7448+100.333+10.8575+99.5337+6.68654C98.9437+3.60854+93.8407+3.56354+93.2837+6.68654C92.7037+9.93954+92.4462+13.3318+92.5962+16.7178C90.7182+15.0718+88.8412+13.4353+86.9712+11.7803C83.0142+8.28029+77.723+13.5935+81.19+17.5615C82.465+19.0215+83.7597+20.4755+85.0337+21.9365C81.8377+22.2695+78.6689+22.7295+75.44+23.3115C72.66+23.8125+72.226+28.0408+74.315+29.4678C62.322+32.1168+50.4334+35.901+39.6275+41.499C31.6735+45.62+30.0167+54.8465+33.5337+62.5615C36.3157+68.6645+41.339+72.876+47.44+74.749C47.256+76.249+47.8549+77.8476+49.315+79.0615C47.556+80.5305+45.7877+82.0173+44.1587+83.6553C42.8527+84.9683+41.7615+86.3035+40.7525+87.6865C26.1135+102.406+29.043+128.715+43.69+142.249C62.483+159.614+89.4119+158.876+113.065+153.218C115.048+160.435+113.883+169.738+113.346+176.905C112.663+186.019+111.145+195.048+109.034+203.937C106.35+215.236+102.446+226.26+97.2212+236.624C97.1834+236.699+97.1342+236.768+97.0962+236.843C94.6367+240.791+91.9858+244.705+89.2212+248.812C51.3572+285.17+21.763+331.663+8.75246+382.749C-3.93054+432.548+1.11647+489.217+31.5025+531.905C40.1775+544.092+50.7882+555.031+62.9712+563.655C58.6832+574.315+56.7397+585.529+58.0337+597.093C58.8697+604.566+60.9422+621.948+70.7212+623.468C75.8142+624.26+80.1442+619.177+83.8462+616.468C90.0242+611.949+96.344+607.664+102.44+603.03C106.933+599.615+113.403+593.807+114.721+587.687C119.339+588.509+124.022+588.796+128.752+588.312C129.338+591.641+130.067+594.955+130.94+598.249C135.032+613.694+142.029+630.325+152.534+642.562C156.428+647.098+162.177+649.932+167.94+646.968C175.314+643.176+176.044+634.612+180.096+628.28C187.512+616.688+203.028+611.51+203.44+595.812C203.471+594.651+203.39+593.503+203.252+592.374C203.329+592.395+203.422+592.421+203.502+592.437C214.689+594.725+226.658+594.218+238.002+593.687C249.617+593.143+261.198+592.057+272.721+590.499C280.766+589.411+288.888+588.137+296.971+586.593C296.976+586.611+296.966+586.637+296.971+586.655C301.471+601.776+317.823+616.981+334.44+615.874C341.719+615.389+347.918+611.083+349.44+603.687C350.56+598.243+348.991+592.717+348.721+587.28C354.969+595.749+362.709+603.135+371.565+608.843C377.715+612.807+385.259+615.987+392.565+613.374C398.126+611.385+402.39+606.215+402.002+600.124C401.584+593.564+393.491+588.661+397.159+582.093C400.543+576.033+405.176+572.113+405.221+564.624C405.264+557.543+402.271+551.56+397.69+546.905C443.348+528.695+481.644+491.445+502.065+446.78C504.539+441.365+507.069+434.465+503.19+429.062C500.34+425.092+495.055+423.363+490.815+426.093C489.984+426.628+489.625+427.416+489.627+428.187C486.408+429.64+483.386+432.294+480.752+434.218C476.135+437.59+471.53+440.981+466.752+444.124C457.132+450.452+446.815+455.919+435.721+459.155C418.798+464.092+399.775+463.134+385.471+452.812C385.429+452.675+385.354+452.547+385.284+452.405C379.574+440.839+372.365+429.917+365.034+419.312C357.919+409.019+350.197+399.078+341.471+390.093C325.406+373.552+305.878+361.246+283.627+354.968C240.954+342.927+193.584+352.749+160.096+381.968C149.543+391.175+139.077+402.533+124.94+405.905C115.439+408.172+103.603+406.104+97.5337+398.28C97.5647+398.121+97.5757+397.965+97.5337+397.78C95.2367+387.795+93.2607+378.027+93.9087+367.718C94.5347+357.743+96.8475+347.959+100.377+338.624C107.588+319.556+119.296+302.64+130.002+285.437C151.101+251.535+169.094+216.679+176.409+177.062C178.412+166.211+179.006+155.343+178.034+144.343C177.095+133.718+175.901+121.356+169.752+112.405C165.467+100.419+157.275+89.4288+147.971+80.9678C150.852+80.0558+153.503+78.5251+155.659+76.124C159.864+71.441+160.336+67.026+157.784+61.374C154.994+55.194+149.088+50.9765+144.19+46.5615C140.171+42.9385+136.092+39.3738+131.627+36.3428C135.382+36.2578+136.419+29.9793+132.44+29.4053C129.349+28.9583+126.288+28.4148+123.221+27.8428C126.909+25.1998+130.168+22.0035+132.721+18.3115C133.23+17.5755+133.216+16.3308+132.721+15.5928C132.526+15.3008+132.378+15.1183+132.096+14.9053C131.984+14.8213+131.863+14.708+131.752+14.624C130.982+14.04+129.853+14.225+129.065+14.624C125.75+16.306+122.489+17.9785+119.19+19.5615C119.442+19.2315+119.688+18.8905+119.94+18.5615C122.299+15.4735+124.857+12.4153+126.034+8.65529C126.839+6.08329+123.851+4.13754+121.659+5.31154C118.201+7.16554+115.614+10.366+113.034+13.249C112.582+13.754+112.142+14.244+111.69+14.749C111.738+10.743+111.695+6.36129+109.409+3.03029C108.891+2.27529+107.981+1.77529+107.065+1.71779Z" opacity="1" fill="#000000"/>
</g>
</svg>
