<?xml version="1.0" encoding="UTF-8" standalone="no"?>
<svg
   xmlns:osb="http://www.openswatchbook.org/uri/2009/osb"
   xmlns:dc="http://purl.org/dc/elements/1.1/"
   xmlns:cc="http://creativecommons.org/ns#"
   xmlns:rdf="http://www.w3.org/1999/02/22-rdf-syntax-ns#"
   xmlns:svg="http://www.w3.org/2000/svg"
   xmlns="http://www.w3.org/2000/svg"
   id="svg2237"
   version="1.1"
   viewBox="0 0 238.20644 60"
   height="60mm"
   width="238.20644mm">
  <defs
     id="defs2231">
    <linearGradient
       id="linearGradient2100"
       osb:paint="solid">
      <stop
         style="stop-color:#287abe;stop-opacity:1;"
         offset="0"
         id="stop2098" />
    </linearGradient>
    <filter
       style="color-interpolation-filters:sRGB;"
       id="filter1949">
      <feColorMatrix
         values="-0.25 0.76 0.0911854 -6.17021 0 -0.25 0.76 0.0911854 -6.17021 0 -0.25 0.76 0.0911854 -6.17021 0 0 0 0 1 0 "
         id="feColorMatrix1947" />
    </filter>
    <filter
       style="color-interpolation-filters:sRGB;"
       id="filter2240">
      <feColorMatrix
         values="-0.21 0.72 0.07 0.0303951 0 -0.21 0.72 0.07 0.0303951 0 -0.21 0.72 0.07 0.0303951 0 0 0 0 1 0 "
         id="feColorMatrix2238" />
    </filter>
    <filter
       style="color-interpolation-filters:sRGB;"
       id="filter2244">
      <feColorMatrix
         values="-0.21 0.72 0.07 0.0303951 0 -0.21 0.72 0.07 0.0303951 0 -0.21 0.72 0.07 0.0303951 0 0 0 0 1 0 "
         id="feColorMatrix2242" />
    </filter>
    <filter
       style="color-interpolation-filters:sRGB;"
       id="filter2248">
      <feColorMatrix
         values="-0.21 0.72 0.07 0.0303951 0 -0.21 0.72 0.07 0.0303951 0 -0.21 0.72 0.07 0.0303951 0 0 0 0 1 0 "
         id="feColorMatrix2246" />
    </filter>
    <filter
       style="color-interpolation-filters:sRGB;"
       id="filter2252">
      <feColorMatrix
         values="-0.21 0.72 0.07 0.0303951 0 -0.21 0.72 0.07 0.0303951 0 -0.21 0.72 0.07 0.0303951 0 0 0 0 1 0 "
         id="feColorMatrix2250" />
    </filter>
    <filter
       style="color-interpolation-filters:sRGB;"
       id="filter2256">
      <feColorMatrix
         values="-0.21 0.72 0.07 0.0303951 0 -0.21 0.72 0.07 0.0303951 0 -0.21 0.72 0.07 0.0303951 0 0 0 0 1 0 "
         id="feColorMatrix2254" />
    </filter>
    <filter
       style="color-interpolation-filters:sRGB;"
       id="filter2260">
      <feColorMatrix
         values="-0.21 0.72 0.07 0.0303951 0 -0.21 0.72 0.07 0.0303951 0 -0.21 0.72 0.07 0.0303951 0 0 0 0 1 0 "
         id="feColorMatrix2258" />
    </filter>
    <filter
       style="color-interpolation-filters:sRGB;"
       id="filter2264">
      <feColorMatrix
         values="-0.21 0.72 0.07 0.0303951 0 -0.21 0.72 0.07 0.0303951 0 -0.21 0.72 0.07 0.0303951 0 0 0 0 1 0 "
         id="feColorMatrix2262" />
    </filter>
    <filter
       style="color-interpolation-filters:sRGB;"
       id="filter2268">
      <feColorMatrix
         values="-0.21 0.72 0.07 0.0303951 0 -0.21 0.72 0.07 0.0303951 0 -0.21 0.72 0.07 0.0303951 0 0 0 0 1 0 "
         id="feColorMatrix2266" />
    </filter>
    <filter
       style="color-interpolation-filters:sRGB;"
       id="filter2272">
      <feColorMatrix
         values="-0.21 0.72 0.07 0.0303951 0 -0.21 0.72 0.07 0.0303951 0 -0.21 0.72 0.07 0.0303951 0 0 0 0 1 0 "
         id="feColorMatrix2270" />
    </filter>
    <filter
       style="color-interpolation-filters:sRGB;"
       id="filter2276">
      <feColorMatrix
         values="-0.21 0.72 0.07 0.0303951 0 -0.21 0.72 0.07 0.0303951 0 -0.21 0.72 0.07 0.0303951 0 0 0 0 1 0 "
         id="feColorMatrix2274" />
    </filter>
    <filter
       style="color-interpolation-filters:sRGB;"
       id="filter2280">
      <feColorMatrix
         values="-0.21 0.72 0.07 0.0303951 0 -0.21 0.72 0.07 0.0303951 0 -0.21 0.72 0.07 0.0303951 0 0 0 0 1 0 "
         id="feColorMatrix2278" />
    </filter>
    <filter
       style="color-interpolation-filters:sRGB;"
       id="filter2368">
      <feColorMatrix
         values="-0.21 0.72 0.07 0.19 0 -0.21 0.72 0.07 0.19 0 -0.21 0.72 0.07 0.19 0 0 0 0 1 0 "
         id="feColorMatrix2366" />
    </filter>
    <filter
       style="color-interpolation-filters:sRGB;"
       id="filter2372">
      <feColorMatrix
         values="-0.21 0.72 0.07 0.19 0 -0.21 0.72 0.07 0.19 0 -0.21 0.72 0.07 0.19 0 0 0 0 1 0 "
         id="feColorMatrix2370" />
    </filter>
  </defs>
  <metadata
     id="metadata2234">
    <rdf:RDF>
      <cc:Work
         rdf:about="">
        <dc:format>image/svg+xml</dc:format>
        <dc:type
           rdf:resource="http://purl.org/dc/dcmitype/StillImage" />
        <dc:title></dc:title>
      </cc:Work>
    </rdf:RDF>
  </metadata>
  <g
     id="layer1"
     transform="translate(124.41235,-38.509337)">
    <path
       d="m -81.405339,49.623441 c 1.759479,1.965854 2.54,4.41325 3.098271,6.879167 2.870729,12.7 -4.7625,24.91052 -17.481021,27.643666 -13.901211,2.987146 -25.709561,-6.720416 -27.482271,-18.880666 a 22.807083,22.807083 0 0 1 2.55852,-14.552083 c 0.2249,-0.415396 0.37306,-0.912813 0.89429,-1.098021 l 6.56432,0.108479 -2.23838,4.733396 q 0,0.243416 0,0.486833 c 1.6166,4.691063 4.63021,8.546042 7.49035,12.490979 0.30692,1.674813 0.0794,3.439583 0.8255,5.040313 q 3.12738,3.532187 6.25211,7.069666 c 0.15346,0.174625 0.33867,0.28575 0.52917,0.02646 0.952495,-0.582083 1.230308,-1.651 1.756829,-2.521479 1.195916,-1.9685 2.49502,-3.884083 3.439583,-5.998104 l 0.291041,-0.460375 c 1.169459,-0.455083 1.907646,-1.502833 2.942167,-2.140479 a 2.0134791,2.0134791 0 0 0 1.034521,-1.965854 c -0.06085,-1.976438 -0.02117,-3.96875 -0.02381,-5.93725 a 17.219083,17.219083 0 0 0 1.322917,-1.468437 c 1.008063,-1.415521 2.595563,-2.38125 3.188229,-4.111625 v 0 a 0.52916666,0.52916666 0 0 0 0.529167,-0.264584 c 0.418042,-0.635 -0.03175,-1.166812 -0.214313,-1.725083 -0.34925,-1.074208 -1.018645,-2.042583 -1.087437,-3.212042 z"
       style="fill:#000000;stroke-width:0.264583;fill-opacity:1"
       id="path94" />
    <path
       d="m -113.25059,49.723983 -6.56431,-0.108479 c 0.86519,-2.251604 2.57704,-3.862917 4.34446,-5.344583 3.04271,-2.55323 6.53256,-4.315355 10.47221,-5.027084 6.852704,-1.219729 13.086287,0.264584 18.602849,4.534959 2.055813,1.5875 3.921125,3.386666 4.995333,5.836708 l -5.820833,0.127 -4.7625,-0.05821 v -1.60602 l 3.413125,-0.01852 0.111125,-0.06085 -0.108479,-0.179917 a 5.7652708,5.7652708 0 0 0 -4.376208,-1.637771 c -4.693708,0.111125 -9.390062,0.04498 -14.083772,0.0344 -1.64571,0 -3.01625,0.703792 -4.33652,1.574271 -1.21708,0.05292 -1.23825,1.092729 -1.5531,1.886479 z"
       style="fill:#000000;stroke-width:0.264583;fill-opacity:0.45344126"
       id="path96" />
    <path
       d="m -115.49161,54.93892 q 0,-0.243416 0,-0.486833 c 2.74373,-0.814917 5.26256,-2.169583 7.8449,-3.360208 0.81756,-0.378354 1.94468,-0.346604 2.38125,-1.394354 1.57162,0.06614 3.175,-0.264584 4.71752,0.206375 q 0.0185,5.55625 0.037,11.138958 h -0.24342 c -3.0136,-1.288521 -6.00604,-2.627313 -9.0461,-3.847042 -1.88648,-0.748771 -3.61421,-1.944687 -5.69119,-2.256896 z"
       style="fill:#b6e0f2;stroke-width:0.264583;filter:url(#filter2248)"
       id="path98" />
    <path
       d="m -115.49161,54.93892 c 2.07433,0.309563 3.80206,1.502834 5.69913,2.264834 3.04006,1.219729 6.0325,2.558521 9.0461,3.847041 -0.24077,1.129771 -1.35996,1.399646 -2.06375,2.06375 -1.60602,1.518709 -3.5269,2.674938 -5.05883,4.28625 a 0.3571875,0.3571875 0 0 1 -0.1323,0.03175 c -2.8575,-3.944937 -5.8711,-7.79727 -7.49035,-12.493625 z"
       style="fill:#90d4f0;stroke-width:0.264583;filter:url(#filter2240)"
       id="path100" />
    <path
       d="m -90.951506,60.537504 c 0,1.979083 -0.03704,3.96875 0.02381,5.93725 a 2.0134791,2.0134791 0 0 1 -1.034521,1.965854 c -1.034521,0.637646 -1.772708,1.685396 -2.942167,2.140479 -1.248833,-1.5875 -2.026708,-3.481917 -3.145895,-5.148792 -0.762,-1.132416 -1.076855,-2.592916 -2.381251,-3.33375 q 0,-0.375708 0.0132,-0.751416 l 0.505354,-0.264584 c 0.227542,0.280459 0.547687,0.243417 0.844021,0.216959 q 4.05077,-0.370417 8.117416,-0.762 z"
       style="fill:#4d8ac8;stroke-width:0.264583;filter:url(#filter2264)"
       id="path102" />
    <path
       d="m -107.17576,72.478149 c -0.74612,-1.603375 -0.52916,-3.3655 -0.82285,-5.042958 a 0.3571875,0.3571875 0 0 0 0.13229,-0.03175 c 2.38125,0.100542 4.7625,0.161396 7.12788,0.529167 q 0,2.778125 -0.0132,5.55625 a 10.435167,10.435167 0 0 1 -1.42346,-0.153459 c -1.67217,-0.259291 -3.28613,-0.851958 -5.00063,-0.85725 z"
       style="fill:#b6e0f2;stroke-width:0.264583;filter:url(#filter2272)"
       id="path104" />
    <path
       d="m -100.75432,73.486212 q 0,-2.778125 0.0132,-5.55625 c 0.54769,-1.920875 0.0847,-3.894667 0.29898,-5.820833 1.307042,0.740833 1.624542,2.203979 2.38125,3.33375 1.121833,1.66952 1.897063,3.553354 3.145896,5.148791 l -0.291042,0.460375 -5.320774,2.447396 a 1.1482917,1.1482917 0 0 1 -0.22754,-0.01323 z"
       style="fill:#58afdd;stroke-width:0.264583;filter:url(#filter2268)"
       id="path106" />
    <path
       d="m -91.99661,49.692233 4.7625,0.05821 c 0.06879,1.169459 0.738188,2.137834 1.087438,3.212042 0.182562,0.560917 0.632354,1.090083 0.214312,1.725083 a 0.57149999,0.57149999 0 0 0 -0.529167,0.264584 v 0 c -0.992187,0.185208 -1.852083,0.711729 -2.74902,1.113895 -0.896938,0.402167 -1.693334,1.074209 -2.754313,1.045105 q 0,-3.683 -0.01323,-7.363355 z"
       style="fill:#4d8ac8;stroke-width:0.264583;filter:url(#filter2256)"
       id="path108" />
    <path
       d="m -91.959568,57.113795 c 1.058333,0.0291 1.852083,-0.645583 2.754312,-1.045104 0.902229,-0.399521 1.756834,-0.928687 2.749021,-1.113896 -0.595312,1.733021 -2.180167,2.696105 -3.188229,4.111625 a 17.216437,17.216437 0 0 1 -1.322917,1.468438 q -4.061354,0.383646 -8.122708,0.764646 c -0.296333,0.02646 -0.616479,0.0635 -0.844021,-0.216959 1.870604,-0.865187 3.754438,-1.70127 5.603875,-2.608791 0.820208,-0.396875 1.770063,-0.584729 2.370667,-1.359959 z"
       style="fill:#266fa8;stroke-width:0.264583;filter:url(#filter2260)"
       id="path110" />
    <path
       d="m -100.75432,73.486212 a 1.1482917,1.1482917 0 0 0 0.23548,0 q 0.0635,3.037416 0.12436,6.085416 c -0.1905,0.264584 -0.37307,0.145521 -0.52917,-0.02646 q -3.13002,-3.526896 -6.25211,-7.059083 c 1.71186,0 3.32582,0.597958 4.99798,0.85725 a 10.435167,10.435167 0 0 0 1.42346,0.142875 z"
       style="fill:#90d4f0;stroke-width:0.264583;filter:url(#filter2276)"
       id="path112" />
    <path
       d="m -105.25488,49.702816 c -0.44715,1.058334 -1.57427,1.016 -2.38125,1.394354 -2.58233,1.190625 -5.10117,2.545292 -7.8449,3.360209 l 2.24102,-4.733396 0.32809,-0.04233 z"
       style="fill:#90d4f0;stroke-width:0.264583;filter:url(#filter2244)"
       id="path114" />
    <path
       d="m -100.39713,79.563691 q -0.0609,-3.037417 -0.12435,-6.085417 l 5.320766,-2.447395 c -0.944563,2.116666 -2.243667,4.029604 -3.439583,5.998104 -0.513292,0.881062 -0.804334,1.949979 -1.756833,2.534708 z"
       style="fill:#266fa8;stroke-width:0.264583;filter:url(#filter2280)"
       id="path116" />
    <path
       d="m -86.453589,54.960087 a 0.57149999,0.57149999 0 0 1 0.529167,-0.264583 0.52916666,0.52916666 0 0 1 -0.529167,0.264583 z"
       style="fill:#266fa8;stroke-width:0.264583"
       id="path118" />
    <path
       d="m -111.37205,47.79517 c 1.32292,-0.870479 2.69082,-1.587499 4.33652,-1.57427 4.69636,0 9.392712,0.07673 14.083774,-0.0344 a 5.7652708,5.7652708 0 0 1 4.3815,1.640416 q 0,0.121709 0,0.243417 l -3.439583,0.01852 h -17.700621 c -0.5715,0 -1.1483,0.0344 -1.66159,-0.293688 z"
       style="fill:#f4fafd;stroke-width:0.264583;filter:url(#filter2372)"
       id="path120" />
    <path
       d="m -111.37205,47.79517 c 0.51329,0.328084 1.09009,0.291042 1.66159,0.291042 h 17.700621 v 1.606021 l 0.02117,0.05821 -8.548691,0.161396 c -1.55575,-0.468312 -3.1459,-0.140229 -4.71752,-0.206375 l -7.67292,-0.01852 c 0.32015,-0.799041 0.33867,-1.838854 1.55575,-1.891771 z"
       style="fill:#e9f6fd;stroke-width:0.264583;filter:url(#filter2368)"
       id="path122" />
    <path
       d="m -88.570256,48.059754 q 0,-0.121709 0,-0.243417 l 0.108479,0.179917 z"
       style="fill:#e9f6fd;stroke-width:0.264583"
       id="path124" />
    <path
       d="m -100.53736,49.911837 8.564563,-0.156104 q 0,3.683 0.01323,7.363354 c -0.600604,0.775229 -1.547813,0.963083 -2.360084,1.362604 -1.852083,0.907521 -3.73327,1.743604 -5.603874,2.608792 l -0.505355,0.264583 -0.0714,-0.298979 z"
       style="fill:#68c1ea;stroke-width:0.264583;filter:url(#filter2252)"
       id="path126" />
    <path
       class="st0"
       d="M -19.519565,76.585581 -41.196387,39.51369 c -0.475896,-0.832811 -1.68941,-0.832811 -2.165307,0 l -18.440765,31.503964 c -0.333124,0.547279 0.26174,1.189726 0.83281,0.92799 0.23794,-0.118976 0.52348,-0.21415 0.80901,-0.333122 v 0.02376 c 0,0 0.49969,-0.190356 1.35629,-0.475896 0.92799,-0.28553 1.97495,-0.57107 2.90293,-0.785215 2.59361,-0.594869 6.02002,-1.094554 9.08952,-0.57107 2.831548,0.475886 4.806498,1.237313 6.234169,1.974941 0.666243,0.333127 1.2849,-0.523473 0.737628,-1.023158 -2.070125,-1.998743 -5.234799,-4.42579 -10.041297,-5.42516 -0.214144,-0.04762 -0.30933,-0.28553 -0.214144,-0.475887 l 7.257332,-12.396959 c 0.237944,-0.404504 0.83281,-0.404504 1.070754,0 l 13.84842,23.699365 c 0.28553,0.499687 0.04762,1.142133 -0.499685,1.308701 -1.094553,0.356915 -2.379453,0.642449 -3.830921,0.642449 -0.927985,0 -1.85597,-0.118976 -2.783965,-0.333121 0,0 -2.688782,-0.428301 -6.281751,-2.56981 -3.59298,-2.14151 -10.51719,-4.877883 -18.27421,-0.452098 -3.30744,2.117712 -5.52033,5.044443 -6.686262,6.85283 -0.190357,0.28553 0.142763,0.618657 0.428303,0.475887 2.664979,-1.42767 9.850939,-4.782705 16.346839,-3.592979 3.85472,0.71384 8.256706,3.616777 12.825265,5.306189 v 0 c 7.566661,2.807753 14.99056,-1.903567 15.014349,-1.903567 0.785225,-0.523479 1.237316,-0.90419 1.332497,-0.975572 l 0.09516,-0.07137 c 1.237323,-1.094553 1.522853,-2.85535 0.71384,-4.259221 z"
       id="path154"
       style="fill:#00add4;stroke-width:0.237943;filter:url(#filter1949)" />
    <g
       transform="matrix(0.05265999,0,0,0.05267442,-11.430049,42.380757)"
       id="g1267"
       style="fill-rule:evenodd">
      <path
         d="m 562.02,246.32 c -14.98,-11.79 -28.33,-53.49 -51.03,-62.16 -21.011,-1.7577 -28.715,-8.3682 -56.344,-2.7386 10.021,-5.0213 19.482,-11.446 30.134,-14.885 7.2152,-1.7032 13.983,0.18382 20.867,1.1334 1.6999,-0.80357 2.8139,-1.8029 2.3983,-3.3133 -27.812,-17.187 -84.866,-17.432 -123.38,-27.243 44.699,1.4962 94.156,-0.9815 127.75,9.7912 27.013,23.973 35.788,69.119 49.605,99.415 z"
         id="path1249" />
      <path
         d="m 643.93,45.227 c 6.2011,0.56336 39.574,53.353 41.142,62.137 2.7751,19.202 9.6196,40.728 11.46,60.819 -5.4968,-19.269 -11.486,-38.537 -18.974,-57.806 -2.1898,-5.3062 -7.7241,-17.302 -23.107,-34.269 -7.1628,-11.959 -8.7092,-21.359 -10.52,-30.88 z"
         id="path1251" />
      <path
         d="m 757.02,332.75 h -14.278 l 15.781,4.1424 z"
         id="path1253" />
      <path
         d="m 659.6,318.49 c -14.358,-1.7651 -29.091,-1.9991 -43.448,1.1565 -5.8522,7.8608 -6.2554,15.856 -8.813,23.245 17.454,-19.236 24.38,-20.412 52.261,-24.401 z"
         id="path1255" />
      <path
         d="m 855.42,417.77 c -7.99,6.3771 -8.7884,12.379 -32.413,19.572 -17.228,4.074 -26.961,-2.8314 -35.07,-12.116 12.294,3.5217 14.259,12.81 47.225,2.3966 z"
         id="path1257" />
      <path
         d="m 783.82,421.76 c -5.7504,15.812 -11.949,31.791 -18.199,46.6 -14.883,17.454 -8.5402,7.5079 -30.819,34.617 7.1285,-10.998 16.4,-21.566 21.254,-33.02 3.4091,-7.5422 7.6532,-15.543 9.5323,-22.244 -5.9074,-2.95 -17.999,-3.1834 -19.639,-2.1247 -19.808,11.683 -23.382,24.047 -35.059,36.086 8.4637,-13.53 15.693,-28.298 25.505,-40.476 1.1181,-1.5806 8.3826,-1.8863 12.849,-2.8189 -6.9404,-1.1908 -19.786,-3.6848 -20.82,-3.572 -12.922,3.1053 -20.163,14.361 -29.756,21.836 6.9939,-10.098 13.436,-20.612 22.317,-29.292 0.8785,-1.0208 24.883,1.0822 37.324,6.0466 l 0.2468,4.9491 7.0633,2.8512 5.3136,-13.314 z"
         id="path1259" />
      <path
         d="m 627.07,517.09 c -3.1882,-1.0895 -31.35,-4.7112 -31.35,-3.8611 -10.813,7.6957 -12.453,15.059 -12.221,21.436 17.989,-17.697 17.319,-17.747 43.572,-17.575 z"
         id="path1261" />
      <path
         d="m 605.68,389.81 c 0,0 20.322,-2.9626 19.926,-1.0652 -1.4722,7.0504 2.4876,24.233 2.9225,21.836 l -11.424,9.32 c 23.926,-12.029 49.113,-9.6117 74.656,-11.45 0,0 -21.507,-5.9381 -20.192,-6.1246 4.7977,-0.6803 -1.2772,-22.43 -2.9225,-22.901 4.0915,-1.3847 8.0873,-2.4285 12.221,-3.4617 -30.756,-8.0483 -48.541,-3.3059 -75.188,13.847 z"
         id="path1263" />
      <path
         d="m 781.56,404.98 -4.5166,2.2634 c -0.6408,-13.231 -14.851,-12.26 -26.834,-12.382 l -9.8302,-2.3966 c 2.9889,2.7664 12.229,2.5495 8.5018,8.5212 -3.1367,1.6765 -4.5798,8.87 -6.3763,14.912 l -5.3136,0.26628 c 9.3867,3.6684 18.095,6.8836 28.428,11.184 l 6.1106,0.932 14.612,-7.8555 z"
         id="path1265" />
    </g>
    <g
       fill="#ffffff"
       transform="matrix(0.05265999,0,0,0.05267442,-11.430049,42.380757)"
       id="g1273"
       style="fill-rule:evenodd">
      <path
         d="m 646.86,396.06 c -2.2872,-4.5248 -13.794,-3.8824 -16.275,-0.95484 -2.0158,2.3788 -0.12514,17.642 2.4595,15.068 3.7368,-3.2849 8.6176,-4.6588 14.48,-4.3938 0.73904,-2.82 0.47742,-5.8648 -0.66421,-9.7194 z"
         id="path1269" />
      <path
         d="m 757.21,418.8 c 1.0816,-0.79113 3.3689,-8.4434 2.6301,-10.733 -1.5117,-5.4032 -12.212,-4.2659 -12.212,-4.2659 -2.6108,1.5363 -4.8989,9.9596 -3.9448,12.739 0.45543,2.3526 11.809,3.1025 13.526,2.2595 z"
         id="path1271" />
    </g>
    <path
       d="m 4.3489904,78.348958 0.3559605,0.03482 c 2.1101384,1.036369 5.5845921,2.572987 10.6146741,1.747263 l 0.789268,1.242274 c -2.215248,1.07677 -4.597849,0.82899 -6.8305273,0.904525 z"
       id="path1275"
       style="fill-rule:evenodd;stroke-width:0.0526672" />
    <path
       d="m 1.3194612,70.155979 1.057044,4.438768 C 5.206453,76.364238 10.04064,78.390992 14.070183,78.227438 L 13.179702,76.183671 C 4.7683219,74.396954 4.0568854,72.138275 1.3196192,70.15561 Z"
       id="path1277"
       style="fill-rule:evenodd;stroke-width:0.0526672" />
    <path
       d="m 3.9498277,61.063847 c 0.5166261,3.439745 1.2062824,6.04755 4.1964746,8.231958 1.8327783,1.318441 3.6520227,2.631298 5.8647427,3.714811 0,0 -0.193978,1.009821 -0.356144,0.991807 C 7.0697688,73.270775 2.2487468,67.808965 1.6647475,65.314304 2.2303684,63.400695 3.0417535,62.205407 3.9496118,61.063847 Z"
       id="path1279"
       style="fill-rule:evenodd;stroke-width:0.0526672" />
    <path
       d="m 7.1152197,59.114893 c 0.8775261,3.812364 2.9698653,7.67361 5.0495133,11.176459 0.762359,0.967576 0.961888,1.394555 2.13689,1.983666 1.588173,0.502998 2.711252,0.374615 3.864032,0.298959 C 17.84979,71.989185 17.56907,71.377951 17.206348,70.828347 14.625061,68.786423 15.81802,66.927279 16.503653,65.750216 15.068353,65.387448 13.16659,64.6164 12.904606,63.602259 12.483369,60.32217 12.697268,59.28164 13.118853,57.596848 11.175226,58.006771 9.2057423,58.412986 7.115088,59.114925 Z"
       id="path1281"
       style="fill-rule:evenodd;stroke-width:0.0526672" />
    <path
       style="color:#000000;text-indent:0;text-decoration:none;text-decoration-line:none;text-decoration-style:solid;text-decoration-color:#000000;text-transform:none;white-space:normal;isolation:auto;mix-blend-mode:normal;solid-color:#000000;fill-rule:evenodd;color-rendering:auto;image-rendering:auto;shape-rendering:auto"
       d="m -0.01494297,38.865161 c -0.63881834,0.417434 -1.25425563,1.014298 -1.91634973,1.692692 -1.0975921,1.136451 -1.827249,2.245037 -2.9444833,3.066916 -0.2234469,0.192725 -0.8505115,0.503098 -1.6388316,0.549131 -0.3713582,0.01854 -0.6132782,0.08001 -1.2956463,-0.0057 -0.6017984,-0.32595 -1.1735279,-0.113988 -1.7315132,0.553608 -0.6118569,0.880137 -1.3867479,2.551391 -1.7089749,3.603457 -0.664095,2.683077 1.029029,4.893717 2.6526946,6.597471 1.4444109,1.411464 2.2771759,2.29355 2.8702328,3.587497 0.4490317,0.839261 0.7816848,1.99104 1.1418265,2.798592 0.1298648,0.256024 0.102866,0.254691 0.4524178,0.331849 0.7547756,0.16112 1.8017616,0.162384 2.7338434,0.242518 0.40328597,0.0056 0.95709529,-0.0094 1.48185209,-0.06409 C 0.80519951,61.682527 1.6547105,61.548708 2.3667262,61.302376 3.0625226,61.131 3.682436,60.893665 4.2412639,60.675182 c -0.07207,0.24463 -0.6044314,0.480143 -0.8040128,0.790221 -1.8941798,2.712206 -2.4130387,5.125643 -2.0832818,8.933582 0.186548,1.687794 0.5737832,3.086984 1.1580985,4.687865 0.2673811,0.732596 0.8363459,1.892803 1.3815875,2.663483 1.6214011,2.291653 5.2487265,5.234467 10.2981877,6.367283 0.880949,0.120446 1.880751,0.0562 2.821048,-0.194273 2.492187,-0.755668 7.571454,-2.542858 7.571454,-2.542858 0,0 -4.508696,0.373082 -6.573547,0.168864 -0.478037,-0.07477 -1.004805,-0.10014 -1.337827,-0.425989 -0.05586,-0.07213 -0.258792,-0.481012 -0.127743,-0.484684 0.178792,-0.005 0.692058,-0.218072 1.484538,-0.288766 -1.691913,-0.182206 -1.667794,-0.180041 -1.791282,-0.488324 -0.192056,-0.478531 -0.48601,-1.132605 -0.788689,-1.704912 0.743454,0.06274 2.3895,0.155152 2.948117,-0.421528 0,0 -0.974052,0.112492 -1.834832,0.0115 -0.290009,-0.03402 -0.78416,-0.210414 -0.932608,-0.264937 -0.386435,-0.150543 -0.704591,-0.197297 -0.778736,-0.295456 -0.134194,-0.341625 -0.225127,-0.45654 -0.387083,-0.914217 -0.219376,-0.605967 -0.23678,-1.281938 -0.278545,-1.900651 0.563094,0.694248 1.280586,1.278671 2.230467,1.577124 0.01219,-0.02569 1.232244,0.530537 2.118301,0.244515 l 0.183709,-0.05928 c 0,0.0164 -0.587053,0.05145 -0.80238,-0.05517 -1.801972,-0.766149 -2.073224,-1.436747 -2.36417,-1.769808 l -0.778157,-1.165843 c 0.23667,-0.472005 0.370468,-0.48994 0.684001,-0.494307 0.948459,0.10538 1.361155,0.186462 1.938256,0.04719 0.389963,0.802759 0.49533,1.61031 1.383114,2.194522 2.957701,0.878188 3.600311,-0.260791 4.316698,-1.267188 2.128095,1.562218 5.592491,2.043925 7.998526,0.02712 3.058808,-3.540353 4.027225,-9.121629 3.755974,-9.440309 -0.382017,-0.648264 -0.883214,-1.316808 -1.313604,-1.224417 -1.533985,0.418867 -2.099606,1.197289 -3.619584,1.019724 0.181029,-0.01024 0.485456,-0.01514 0.487779,-0.0324 0.117105,-1.287415 -0.0094,-1.910343 -0.06592,-2.017272 C 29.877869,60.93808 29.272174,59.867262 28.849999,59.064767 28.741161,58.898279 28.42152,57.633866 27.8859,57.134355 27.656181,56.938169 27.093946,56.420827 27.093946,56.420827 l -0.04765,0.549868 c 0,0 0.219798,0.0332 0.303448,0.373847 0.317129,1.291418 1.931937,4.344849 2.050475,4.491179 0.572308,0.924172 0.05816,2.075424 0.493282,2.721318 0.0418,0.08206 0.887689,-0.0072 1.543306,0.0331 1.078108,-0.231946 1.03261,-0.707206 1.963902,-0.778633 0.627338,-0.04812 0.690267,1.130393 0.681999,1.221836 -0.116905,1.301269 -0.512645,2.814236 -1.118287,4.195939 -1.259206,2.426658 -2.669388,4.606167 -4.669362,4.910099 -2.439526,0.42641 -3.70721,-0.640416 -5.029661,-1.319758 l -0.505894,0.431583 c -1.718664,1.711971 -3.759344,1.5599 -4.594005,-0.676919 -0.415492,-0.867706 -0.956937,-1.399507 -1.420555,-2.143849 l -2.45859,1.771283 c -0.204663,0.419857 -0.456309,1.081932 -0.76199,1.821481 -0.21252,0.514155 -0.390732,1.397189 -0.379126,2.130996 -0.315154,0.537016 1.091589,2.714945 1.98049,4.039707 0.262305,0.390907 0.751932,1.073768 0.768309,1.116329 0.176285,0.457377 0.562356,0.861174 0.58579,0.910425 1.650206,2.152908 -2.081702,1.657137 -2.852434,1.527084 -1.52061,-0.242355 -3.007991,-0.877714 -4.4060612,-1.7273 -0.081128,-0.0493 -0.1619663,-0.09931 -0.2424834,-0.150017 C 7.317374,80.823998 5.7886545,79.485173 4.488848,78.160938 3.7137982,77.283066 2.9758211,75.483655 2.4307376,74.207986 1.6138232,71.140965 0.44145379,65.824852 3.6172725,61.796312 3.8185811,61.566035 4.0358035,61.182655 4.220756,61.106804 5.1643177,60.468443 6.1889231,60.033352 7.2907281,59.791735 L 7.1794996,59.077311 c -0.5502442,0.125055 -2.4030333,0.802917 -2.9268949,1.086621 -1.1913269,0.345449 -2.1794916,0.706153 -3.69778448,1.08641 -0.49355049,0.06041 -0.97905453,0.06149 -1.45230986,-0.0028 C -1.9897105,61.099098 -3.8513991,61.231685 -3.9701474,61.121337 -4.7097043,60.089708 -4.912182,58.24131 -5.5869671,57.252085 l -0.00796,-0.0099 -0.00855,-0.0094 c -0.3933701,-0.528851 -0.8518807,-0.960255 -1.3034401,-1.409041 -1.617083,-1.607096 -3.0011455,-3.160992 -3.3885658,-4.807594 -0.09742,-0.486185 -0.348293,-0.989753 -0.214958,-2.428291 l 0.0025,-0.007 0.0023,-0.007 c 0.389052,-1.343882 1.0219726,-2.439352 2.0961838,-3.537245 1.1178662,0.01805 2.2243579,0.04261 3.086244,0.2073 0.3954186,0.06617 1.2177096,0.17361 2.0670099,0.490083 2.1496861,0.80102 4.9900607,2.117986 4.9900607,2.117986 -2.13209771,-1.171269 -4.5161734,-2.692453 -6.0216699,-2.99944 -0.2239945,-0.03172 -0.3616635,-0.13393 -0.4281836,-0.312359 2.2643269,-1.330767 2.6785504,-2.897567 4.16788019,-4.302763 0.68063037,-0.296357 0.94603672,-0.447648 1.52434873,-0.510504 5.34867518,0.845951 8.71575498,2.976894 11.37929718,4.40179 1.081057,0.588057 2.063797,1.032735 3.002409,1.568276 0.82276,0.270699 3.30552,2.14564 4.032123,3.156514 0.738135,1.5589 1.277057,3.242796 1.768586,4.867696 0.352458,1.65266 0.66162,2.323047 0.66162,2.323047 0,0 -0.299546,-1.382334 -0.249625,-1.630694 0.310568,0.116084 1.044827,0.345407 1.349202,0.309778 0,0 -1.359576,-0.702993 -1.537724,-1.324288 -0.571677,-1.993568 -1.145039,-5.09704 -1.299649,-5.258856 -0.435709,-0.548393 -2.252636,-1.939261 -3.367132,-2.582626 -0.421596,-0.243383 -0.649456,-0.394348 -0.667255,-0.50135 0.356034,-0.359767 0.795745,-0.83568 1.19001,-1.138084 0.37792,-0.289872 0.722022,-0.616765 1.248727,-0.812397 2.315091,-1.042954 3.638858,0.401252 3.952975,0.108804 0,0 -0.498059,-0.571044 -0.276834,-0.477041 0.226549,0.122747 0.964889,0.267502 1.045933,0.342879 0.843771,0.660221 3.049698,3.073236 4.379257,5.619307 0.319325,0.623665 0.449127,1.034315 0.301026,1.785294 -0.148496,0.751664 -0.26339,1.165 -0.425372,1.666988 -0.14631,0.335588 -0.974104,2.633089 -0.970892,2.941761 -0.166753,1.260604 0.540502,2.838782 0.540502,2.838782 0.0067,-0.42838 -0.02635,-0.656639 0.01247,-0.962994 l 0.04761,-0.547445 c 0,0 -0.03017,-0.145613 -0.0247,-0.203323 0.03592,-0.378555 0.128753,-0.69683 0.156005,-0.913638 0.265806,-1.646339 0.727866,-2.831513 1.251991,-4.276215 0.155758,-0.364591 0.359547,-0.567356 0.349152,-0.84495 0.0086,-0.492601 -0.432065,-1.15378 -0.750511,-1.799516 -0.321226,-0.652636 -0.705117,-1.380175 -1.209073,-2.14701 -1.149041,-1.652712 -2.128517,-2.945816 -3.922116,-3.755106 -0.50185,-0.22029 -2.476599,-0.435665 -3.158546,-0.307687 -0.827289,0.172398 -1.538725,0.342404 -2.105873,0.705732 -0.892587,0.571728 -1.594018,1.456921 -2.416567,1.978503 C 13.443329,43.948492 12.56496,43.267201 12.401187,43.173283 11.319551,42.593548 10.020956,41.92079 8.6238863,41.282798 7.9540512,40.657974 3.7944386,39.163548 -0.0144585,38.865463 Z M 23.264985,72.818565 c -1.121657,-0.877029 -2.065851,-1.779868 -2.688292,-2.709572 -0.203173,1.093416 -0.940718,1.872154 -1.51071,2.638093 -0.113461,0.179641 -0.195253,0.424577 0.36347,1.205138 0.150597,0.207959 0.69548,0.243498 1.06331,0.224425 -0.374228,-0.282962 -0.943561,-0.582211 -1.035295,-0.841579 0.658303,0.448306 1.267842,0.577153 1.818771,0.504952 0.125873,-0.01415 0.282257,-0.147683 0.403128,-0.353224 0.24559,-0.527797 0.437894,-0.654901 0.632183,-0.796964 l 0.447705,0.561035 z"
       stroke="#000000"
       stroke-width="0.00600248"
       id="path1283" />
  </g>
</svg>
