<?xml version="1.0" encoding="iso-8859-1"?>
<!-- Generator: Adobe Illustrator 23.0.2, SVG Export Plug-In . SVG Version: 6.00 Build 0)  -->
<svg version="1.1" id="Layer_1" xmlns="http://www.w3.org/2000/svg" xmlns:xlink="http://www.w3.org/1999/xlink" x="0px" y="0px"
	 viewBox="0 0 714 714" style="enable-background:new 0 0 714 714;" xml:space="preserve">
<path style="fill:#00A79D;" d="M553.157,577.554c0,0,43.256-19.035,60.697-38.22s48.834-61.479,47.962-73.251
	c-0.872-11.773-7.848-7.848-25.289,6.104c-17.441,13.953-44.038,27.905-66.275,23.109c0,0-13.509-2.811-19.685-5.6
	c-6.176-2.789-18.926-26.895-28.489-38.45s-25.301-40.243-44.626-48.013c-19.325-7.77-46.818-22.712-73.314-19.723
	c-26.497,2.988-50.802,6.574-72.916,22.114c-22.114,15.539-28.29,35.063-54.986,33.47c-26.696-1.594-29.087-29.087-25.7-48.411
	s20.52-53.193,33.669-72.916c13.149-19.723,28.489-51.997,28.489-51.997s21.516-45.224,20.52-76.303s-11.953-57.576-17.332-63.752
	c-5.379-6.176-19.125-17.731-19.922-17.332c-0.797,0.398-48.013,2.59-58.373,1.793c-10.36-0.797-22.376-0.447-22.376-0.447
	s-21.254,6.623-22.45,27.342s5.578,36.458,26.696,43.431s55.185,0.598,55.185,0.598s3.586,42.235-8.168,67.935
	s-51.997,76.9-52.595,77.498c-0.598,0.598-30.481,48.611-38.849,85.865s-6.973,61.361-6.973,61.361s5.18,54.787,29.087,84.471
	c23.907,29.684,27.294,32.274,27.294,32.274s-5.379,14.543-4.981,30.481s6.375,32.274,11.754,30.88
	c5.379-1.395,16.934-13.946,23.11-17.332c6.176-3.387,9.961-4.781,12.352-9.563s2.789-11.157,2.789-11.157l18.412,4.937
	c0,0,7.686,28.135,16.651,41.283c8.965,13.149,14.543,20.122,20.122,16.735c5.578-3.387,5.777-13.348,13.946-22.911
	s13.547-10.36,17.133-17.93s2.59-16.336,2.59-16.336s54.189-2.191,68.732-3.586c14.543-1.395,74.709-15.141,74.709-15.141
	s11.156,23.11,26.298,33.071c15.141,9.961,26.497,7.57,28.29,3.188c1.793-4.383-6.774-12.75-4.981-18.727
	c1.793-5.977,9.961-17.332,10.559-24.505S553.157,577.554,553.157,577.554z"/>
<path style="fill:#EF4136;" d="M207.85,157.528c0,0,3.047-2.952,16.378-0.952s23.235,8.38,23.235,8.38s-8.189,5.047-17.235,3.999
	C221.182,167.907,207.85,157.528,207.85,157.528z"/>
<path d="M206.327,157.147c0.301,0.301,1.714-2.381,16.664-0.476c14.95,1.904,24.472,6.761,24.472,7.523c0,0.762-0.095,1.047,0,0.762
	c0.095-0.286,7.047-5.809,6.19-10.76c-0.857-4.952-4.856-8.475-12.093-6.761c-7.237,1.714-7.237,4.761-11.808,4.095
	c-4.571-0.667-7.427-1.428-11.141-5.999c-3.714-4.571-7.904-7.904-12.665-5.333C201.185,142.768,197.757,148.577,206.327,157.147z"
	/>
<path style="fill:#EF4136;" d="M237.586,110.175c0,0-27.996-5.313-33.033-13.498s-14.48-10.388-3.463-20.147
	s48.635-17.313,62.958-17.786c14.323-0.472,36.043,14.48,45.802,25.341c9.758,10.86,6.453,20.934-0.63,24.239
	C302.138,111.63,250.788,111.868,237.586,110.175z"/>
<path style="fill:#008E85;" d="M457.598,612.854c-0.075-0.36,43.045-11.896,43.045-11.896l6.377,9.688
	c0,0-1.349,10.915-1.962,18.396s-7.603,13.245-13.367,13.981C485.927,643.759,461.4,631.005,457.598,612.854z"/>
<g>
	<path d="M212.864,136.552c-5.208-2.066-12.356-0.043-13.87,5.917c-1.349,5.313,1.511,11.768,5.9,14.75
		c0.212,0.144,0.423,0.235,0.63,0.292c1.582,1.87,3.533,3.521,5.504,5.033c6.507,4.995,13.39,8.485,21.716,8.978
		c7.11,0.421,15.148-1.384,19.718-7.265c3.771-4.854,4.427-11.792,0.06-16.519c-4.609-4.988-10.738-3.372-16.189-0.892
		c-2.476,1.126-4.678,2.449-7.547,1.759c-2.712-0.654-4.782-2.807-6.684-4.694C219.269,141.102,216.669,138.062,212.864,136.552z
		 M227.514,166.54c-5.49-1.136-10.12-3.988-14.576-7.26c-0.995-0.73-1.861-1.493-2.656-2.283c5.438,0.701,11.009,0.155,16.501,1.27
		c0.729,0.148,1.453,0.313,2.175,0.485c-0.092,0.022-0.187,0.043-0.277,0.065c-1.961,0.484-3.516,1.419-5.012,2.753
		c-0.761,0.679,0.207,1.69,1.018,1.319c1.501-0.686,3.207-1.204,4.84-1.452c1.476-0.224,2.969,0.094,4.371-0.488
		c0.319-0.133,0.534-0.356,0.64-0.611c3.582,1.182,7.062,2.653,10.443,4.377C239.791,167.561,233.16,167.709,227.514,166.54z
		 M232.324,153.158c4.293-0.717,8.625-4.319,12.965-4.141c8.411,0.344,6.108,10.277,1.736,14.286
		c-0.076-0.074-0.163-0.144-0.274-0.202c-6.141-3.186-12.589-5.591-19.384-6.957c-5.757-1.157-13.008-2.647-18.747-0.97
		c-0.36-0.436-0.708-0.88-1.041-1.333c-1.683-3.465-4.553-10.14,0.359-11.379c5.002-1.261,9.708,5.267,13.308,7.804
		C224.612,152.637,228.21,153.845,232.324,153.158z"/>
	<path d="M247.892,135.815c1.43-1.02,3.004-1.788,4.798-1.668c1.842,0.123,3.029,1.221,4.574,2.077
		c2.108,1.168,3.976-1.104,3.087-3.086c-2.748-6.128-11.955-4.861-15.102,0.034C244.24,134.74,246.302,136.949,247.892,135.815z"/>
	<path d="M208.571,127.152c-0.634,1.362,0.629,2.516,1.954,1.954c2.238-0.948,4.333-2.06,6.783-0.918
		c1.777,0.828,2.716,2.683,4.387,3.677c0.891,0.53,2.182,0.051,2.427-0.988C225.973,123.035,211.657,120.527,208.571,127.152z"/>
	<path d="M357.319,423.039c2.932,2.192,6.457,0.615,9.311-0.79c4.981-2.452,10.084-5.012,14.824-7.873
		c5.414-3.269,3.43-10.047-2.819-10.45c-7.973-0.515-18.25,5.662-23.613,11.104c-1.266,1.284-0.703,2.906,0.485,3.621
		C355.338,420.244,355.84,421.934,357.319,423.039z"/>
	<path d="M410.307,422.68c-5.32,0.021-11.397,0.645-15.799,3.832c-0.759,0.55-0.909,1.902-0.049,2.37
		c-0.511,1.225-0.564,2.703,0.156,4.314c1.875,4.193,6.759,4.653,10.539,3.105c2.316-0.948,4.089-2.83,6.624-2.077
		c2.046,0.608,3.561,2.155,5.722,2.592c7.017,1.418,12.689-6.625,6.153-11.46C420.1,422.729,414.508,422.664,410.307,422.68z"/>
	<path d="M421.246,406.271c4.916,2.607,12.253,3.576,17.773,4.245c3.439,0.417,7.301-0.968,6.814-5.112
		c-0.517-4.395-6.564-5.689-10.08-6.349c-5.365-1.006-10.69-0.47-15.701,1.667c-1.506,0.643-1.33,2.753-0.259,3.706
		C419.948,405.153,420.401,405.823,421.246,406.271z"/>
</g>
<path d="M662.327,459.493c-2.85-3.97-8.162-5.694-12.402-2.964c-0.831,0.535-1.17,1.312-1.167,2.083
	c-3.219,1.453-6.254,4.122-8.888,6.046c-4.617,3.372-9.208,6.777-13.986,9.92c-9.62,6.328-19.937,11.778-31.031,15.014
	c-16.923,4.937-35.965,3.983-50.269-6.34c-0.042-0.137-0.093-0.277-0.163-0.419c-5.71-11.566-12.935-22.466-20.266-33.071
	c-7.115-10.293-14.821-20.238-23.547-29.223c-16.065-16.541-35.613-28.842-57.864-35.12c-42.673-12.041-90.049-2.242-123.537,26.977
	c-10.553,9.207-21.023,20.562-35.16,23.934c-9.501,2.267-21.322,0.212-27.391-7.612c0.031-0.159,0.037-0.328-0.005-0.513
	c-2.297-9.985-4.283-19.737-3.635-30.046c0.626-9.975,2.952-19.747,6.482-29.082c7.211-19.068,18.929-35.998,29.635-53.201
	c21.099-33.902,39.089-68.765,46.404-108.382c2.003-10.851,2.589-21.728,1.617-32.728c-0.939-10.625-2.13-22.958-8.279-31.909
	c-4.285-11.986-12.483-22.994-21.787-31.455c2.881-0.912,5.527-2.442,7.683-4.843c4.205-4.683,4.702-9.086,2.15-14.738
	c-2.79-6.18-8.715-10.42-13.613-14.835c-4.019-3.623-8.103-7.177-12.568-10.208c3.755-0.085,4.798-6.346,0.819-6.92
	c-3.091-0.447-6.16-1.007-9.227-1.579c3.688-2.643,6.966-5.844,9.519-9.536c0.509-0.736,0.495-1.967,0-2.705
	c-0.195-0.292-0.345-0.495-0.627-0.708c-0.112-0.084-0.223-0.169-0.334-0.253c-0.77-0.584-1.917-0.399-2.705,0
	c-3.315,1.682-6.579,3.331-9.878,4.914c0.252-0.33,0.504-0.659,0.756-0.988c2.359-3.088,4.903-6.141,6.08-9.901
	c0.805-2.572-2.169-4.527-4.361-3.353c-3.458,1.854-6.036,5.048-8.616,7.931c-0.452,0.505-0.903,1.01-1.355,1.515
	c0.048-4.006,0.019-8.406-2.267-11.737c-1.036-1.51-3.719-1.97-4.643,0c-2.129,4.539-1.375,9.932-1.87,14.851
	c-0.023,0.231-0.055,0.469-0.09,0.709c-1.313-3.848-2.483-7.716-3.282-11.887c-0.59-3.078-5.708-3.123-6.265,0
	c-0.58,3.253-0.821,6.652-0.671,10.038c-1.878-1.646-3.747-3.303-5.617-4.958c-3.957-3.5-9.249,1.814-5.782,5.782
	c1.275,1.46,2.553,2.917,3.827,4.378c-3.196,0.333-6.354,0.803-9.583,1.385c-2.78,0.501-3.228,4.722-1.139,6.149
	c-11.993,2.649-23.885,6.429-34.691,12.027c-7.954,4.121-9.593,13.338-6.076,21.053c2.782,6.103,7.79,10.335,13.891,12.208
	c-0.184,1.5,0.409,3.082,1.869,4.296c-1.759,1.469-3.499,2.959-5.128,4.597c-1.306,1.313-2.402,2.641-3.411,4.024
	c-14.639,14.719-11.709,41.058,2.938,54.592c18.793,17.365,45.723,16.604,69.376,10.946c1.983,7.217,0.806,16.522,0.269,23.689
	c-0.683,9.114-2.207,18.148-4.318,27.037c-3.578,15.066-9.305,29.658-17.473,42.823c-0.255,0.063-0.503,0.183-0.72,0.389
	c-38.668,36.587-68.891,83.775-82.093,135.613c-12.683,49.799-7.61,106.461,22.776,149.149
	c8.675,12.187,19.276,23.108,31.459,31.732c-4.288,10.66-6.23,21.897-4.936,33.461c0.836,7.473,2.905,24.834,12.684,26.354
	c5.093,0.792,9.421-4.274,13.123-6.983c6.178-4.519,12.51-8.806,18.606-13.44c4.493-3.415,10.939-9.24,12.257-15.36
	c4.618,0.822,9.313,1.121,14.043,0.636c0.586,3.329,1.306,6.644,2.179,9.938c4.092,15.445,11.101,32.086,21.606,44.323
	c3.894,4.536,9.626,7.36,15.389,4.396c7.374-3.792,8.107-12.349,12.159-18.681c7.416-11.592,22.934-16.768,23.346-32.466
	c0.031-1.161-0.028-2.306-0.165-3.435c0.077,0.021,0.143,0.05,0.224,0.066c11.187,2.288,23.169,1.759,34.513,1.228
	c11.615-0.544,23.197-1.627,34.72-3.185c8.045-1.088,16.16-2.358,24.243-3.902c0.005,0.018,0.005,0.034,0.01,0.052
	c4.5,15.121,20.833,30.341,37.45,29.234c7.279-0.485,13.482-4.79,15.004-12.186c1.12-5.444-0.451-10.962-0.721-16.399
	c6.248,8.469,13.996,15.83,22.852,21.538c6.15,3.964,13.685,7.17,20.991,4.557c5.561-1.989,9.839-7.162,9.451-13.253
	c-0.418-6.56-8.501-11.466-4.833-18.034c3.384-6.06,7.998-9.997,8.043-17.486c0.043-7.081-2.95-13.058-7.531-17.713
	c45.658-18.21,83.965-55.471,104.386-100.136C663.664,471.789,666.206,464.896,662.327,459.493z M286.695,66.801
	c4.753,2.822,9.102,6.309,13.223,9.986c4.463,3.982,12.307,10.087,13.729,16.169c2.052,8.781-7.453,9.782-14.55,9.809
	c0.583-1.3,0.907-2.665,0.862-4.03c-0.189-5.768,0.839-10.033-2.333-15.146c-3.211-5.177-8.545-8.782-13.16-12.612
	c-0.803-0.667-1.606-1.333-2.41-2c-0.435-0.693-0.903-1.38-1.391-2.06C282.675,66.861,284.685,66.823,286.695,66.801z
	 M244.447,71.406c2.778-1.277,5.274-2.714,7.81-4.355c-0.644,3.006-1.296,6.038-1.472,9.081c-0.257,4.425,5.734,4.489,7.151,0.968
	c0.964-2.394,1.594-4.958,2.186-7.517c1.351,2.766,2.806,5.466,4.554,8.074c1.405,2.096,5.707,1.616,5.323-1.442
	c-0.349-2.779-0.888-5.457-1.532-8.11c0.78,0.268,1.555,0.568,2.312,0.948c2.777,1.392,4.996,2.683,7.123,5.006
	c1.128,1.233,2.643,1.152,3.774,0.416c2.95,2.036,5.891,4.09,8.704,6.287c2.503,1.955,4.937,4.146,5.559,7.374
	c0.376,1.949,0.356,4.779-1.358,6.163c-0.703,0.568-1.948,0.609-2.738,1.09c-3.248,1.979-6.692,6.477-7.952,10.137
	c-1.528-0.084-3.013-0.185-4.4-0.36c-7.795-0.982-15.518-2.561-23.214-4.107c-7.383-1.483-15.236-1.62-22.786-1.784
	c-2.636-5.79-4.931-12.827-1.661-17.691c2.708-4.028,6.986-6.753,10.662-9.905C243.118,71.774,243.787,71.709,244.447,71.406z
	 M204.783,85.511c-1.26-7.66,4.982-9.725,10.896-12.253c8.738-3.735,18.378-7.445,28.101-9.786c-1.088,0.925-2.151,1.883-3.203,2.92
	c-0.705,0.695-0.991,1.461-0.984,2.192c-1.943,1.554-3.852,3.158-5.802,4.635c-4.128,3.128-6.965,6.432-10.065,10.551
	c-2.969,3.945-4.185,7.521-2.764,12.491c0.282,0.987,0.634,1.887,1.015,2.753c-2.802,0.049-5.586,0.278-8.254,0.9
	C210.824,95.132,205.694,91.046,204.783,85.511z M263.529,623.625c-3.022,3.224-6.846,5.724-10.29,8.459
	c-3.491,2.773-6.895,5.659-10.328,8.502c-3.581,2.966-11.245,11.598-15.344,6.227c-5.026-6.586-6.115-18.251-6.402-26.227
	c-0.3-8.349,0.86-16.81,3.422-24.774c4.516,3.025,9.248,5.718,14.166,8.058c1.165,0.751,2.364,1.433,3.492,2.088
	c4.486,2.606,9.128,4.874,13.939,6.814c3.583,1.445,7.258,2.758,10.997,3.804C266.769,619.075,265.694,621.314,263.529,623.625z
	 M495.55,638.419c-14.511,3.363-27.003-11.572-33.765-22.522c13.021-2.715,25.887-6.228,38.166-10.971
	c0.661,1.293,1.339,2.564,2.036,3.798c0.45,0.796,0.914,1.584,1.388,2.365C499.636,620.271,507.478,635.655,495.55,638.419z
	 M658.275,470.543c-1.013,3.302-2.72,6.451-4.259,9.53c-2.962,5.925-6.23,11.698-9.777,17.292
	c-7.393,11.658-16.014,22.505-25.656,32.382c-18.421,18.87-40.703,34.001-64.647,45.011c-5.738-4.6-13.095-7.508-20.088-8.408
	c-2.247-0.289-2.521,2.829-1.046,3.862c6.348,4.448,14.142,7.049,19.666,12.593c3.123,3.134,5.32,7.003,5.439,11.525
	c0.111,4.215-2.261,7.282-4.718,10.457c-3.68,4.755-6.692,9.69-4.591,15.829c1.001,2.924,3.209,5.194,4.348,8.02
	c1.58,3.921-1.617,6.997-5.398,7.68c-7.491,1.355-16.395-6.221-21.691-10.714c-5.542-4.702-10.522-10.13-14.73-16.055
	c-8.992-12.662-12.727-26.363-16.304-41.206c-0.499-2.073-3.357-1.443-3.521,0.477c-0.827,9.688,1.583,19.847,5.421,29.124
	c-21.339,5.59-42.44,11.297-64.349,14.423c-11.378,1.624-22.836,2.704-34.313,3.292c-11.489,0.588-23.253,0.003-34.667,1.458
	c-0.813,0.104-1.499,0.532-2.005,1.108c-1.861-6.061-5.688-11.584-9.579-16.463c-3.527-4.422-7.317-8.639-11.036-12.898
	c-3.941-4.513-7.06-8.209-12.557-10.759c-1.817-0.843-4.317,0.565-3.62,2.783c4.628,14.727,20.517,23.029,27.265,36.826
	c6.757,13.815-4.798,21.524-12.73,30.943c-3.868,4.593-6.034,9.421-8.163,14.988c-1.475,3.859-3.336,8.632-7.77,9.777
	c-4.109,1.062-7.295-2.281-9.707-5.226c-9.123-11.137-15.512-25.125-19.59-38.836c-4.718-15.862-6.391-32.619-5.058-49.105
	c0.068-0.839-1.362-1.047-1.485-0.201c-1.699,11.654-1.739,23.358-0.086,34.908c-4.946-1.727-10.001-3.128-15.042-4.574
	c-0.283-0.398-0.589-0.794-0.946-1.186c-0.846-0.929-2.381-0.815-3.306-0.063c-2.779-0.836-5.542-1.719-8.264-2.729
	c-1.486-0.551-2.961-1.134-4.431-1.733c-0.111-1.013-0.63-1.979-1.69-2.594c-38.155-22.132-65.657-59.383-74.57-102.712
	c-10.41-50.604,3.33-103.835,27.557-148.473c6.604-12.167,13.837-24.162,21.221-35.869c6.827-10.824,14.493-21.06,21.959-31.441
	c0.103-0.08,0.201-0.171,0.288-0.286c10.727-14.151,18.032-30.574,22.663-47.667c2.298-8.483,3.778-17.176,4.628-25.921
	c0.432-4.443,0.683-8.904,0.733-13.368c0.052-4.614-0.855-9.612-0.178-14.167c1.31-0.362,2.61-0.733,3.89-1.117
	c2.964-0.889,1.733-5.419-1.281-4.645c-23.632,6.076-50.532,11.517-71.896-4.027c-8.81-6.41-14.224-15.516-15.017-26.408
	c-0.661-9.074,1.572-18.763,7.675-25.645c1.479-1.293,2.983-2.563,4.442-3.835c1.964-1.712,4.023-3.377,6.211-4.827
	c5.6,2.822,12.257,3.543,18.352,4.393c8.021,1.119,16.683,2.395,24.751,1.377c7.731-0.976,15.46-1.968,23.192-2.937
	c5.297-0.664,12.207-0.468,17.751-2.11c1.127,0.092,2.261,0.134,3.393,0.125c7.625,6.074,13.886,13.483,18.889,21.911
	c3.375,5.684,5.573,11.553,7.364,17.616c1.189,7.566,3.464,15.047,4.151,22.716c0.867,9.681,0.538,19.502-0.43,29.165
	c-2.079,20.757-9.656,41.42-18.253,60.297c-8.328,18.286-18.083,35.837-28.758,52.85c-10.385,16.552-21.248,33.042-28.029,51.487
	c-5.987,16.284-9.791,37.591-2.904,54.423c-0.279,0.297-0.416,0.729-0.26,1.261c5.64,19.204,30.524,20.424,45.462,12.383
	c10.834-5.832,19.381-14.946,28.743-22.748c9.028-7.524,19.233-13.646,30.088-18.15c43.245-17.943,95.865-11.209,131.577,19.578
	c11.234,9.684,20.863,21.07,29.487,33.1c6.886,9.605,12.842,19.83,19.42,29.625c-0.343,0.55-0.397,1.292,0.143,1.923
	c1.293,1.511,2.674,2.917,4.129,4.224c0.192,0.265,0.375,0.536,0.568,0.8c0.424,0.579,0.966,0.87,1.512,0.948
	c13.859,11.042,33.549,13.857,50.707,10.442c11.95-2.379,23.092-7.854,33.36-14.276c5.323-3.329,10.492-6.94,15.471-10.764
	c3.696-2.838,9.397-6.428,11.522-10.858c2.031-0.707,3.867,0.615,4.934,2.464C659.62,465.312,659.042,468.046,658.275,470.543z"/>
<path style="fill:#53C0A5;" d="M305.591,499.019c0.237,1.848,9.818,60.457,66.141,76.475
	c56.323,16.018,113.679-30.487,111.612-61.49c-2.067-31.003-50.122-27.386-65.107-28.42
	C403.252,484.551,298.357,442.696,305.591,499.019z"/>
<path style="fill:#53C0A5;" d="M517.964,532.089c1.547,0.107,20.669-1.033,17.569-16.535c-3.1-15.502-27.386-17.052-29.97-9.818
	S502.98,531.056,517.964,532.089z"/>
<path style="fill:#53C0A5;" d="M217.024,388.162c0.536,2.011-9.237,52.537,6.928,94.104s44.454,60.042,40.413,71.589
	c-4.041,11.547-40.99,2.309-64.661-49.65S210.096,362.183,217.024,388.162z"/>
</svg>
