<?xml version="1.0" encoding="UTF-8" standalone="no"?> <!-- Created with Vectornator for iOS (http://vectornator.io/) --><!DOCTYPE svg PUBLIC "-//W3C//DTD SVG 1.1//EN" "http://www.w3.org/Graphics/SVG/1.1/DTD/svg11.dtd">
<svg style="fill-rule:evenodd;clip-rule:evenodd;stroke-linecap:round;stroke-linejoin:round;" xmlns:vectornator="http://vectornator.io" xmlns:xlink="http://www.w3.org/1999/xlink" xmlns="http://www.w3.org/2000/svg" xml:space="preserve" version="1.1" viewBox="0 0 714 714">
<metadata>
<vectornator:setting key="DynamicGuides" value="1"/>
<vectornator:setting key="Units" value="Points"/>
<vectornator:setting key="GuidesVisible" value="1"/>
<vectornator:setting key="RulersVisible" value="1"/>
<vectornator:setting key="SnapToGuides" value="1"/>
<vectornator:setting key="GridSpacing" value="36"/>
</metadata>
<defs/>
<g id="Untitled" vectornator:layerName="Untitled">
<path d="M266.188+32.1562C265.272+32.0987+264.368+32.4838+263.906+33.4688C261.777+38.0078+262.526+43.3935+262.031+48.3125C262.008+48.5435+261.973+48.7913+261.938+49.0312C260.624+45.1832+259.455+41.296+258.656+37.125C258.066+34.047+252.963+34.002+252.406+37.125C251.826+40.378+251.569+43.7702+251.719+47.1562C249.841+45.5102+247.964+43.8737+246.094+42.2188C242.137+38.7187+236.846+44.032+240.312+48C241.587+49.46+242.882+50.914+244.156+52.375C240.96+52.708+237.791+53.168+234.562+53.75C231.782+54.251+231.349+58.4792+233.438+59.9062C221.444+62.5552+209.556+66.3395+198.75+71.9375C190.796+76.0585+189.139+85.285+192.656+93C195.438+99.103+200.462+103.314+206.562+105.188C206.378+106.688+206.977+108.286+208.438+109.5C206.678+110.969+204.91+112.456+203.281+114.094C201.975+115.407+200.884+116.742+199.875+118.125C185.236+132.844+188.166+159.154+202.812+172.688C221.605+190.053+248.534+189.314+272.188+183.656C274.171+190.873+273.006+200.177+272.469+207.344C271.786+216.458+270.267+225.486+268.156+234.375C265.473+245.674+261.568+256.698+256.344+267.062C256.306+267.138+256.257+267.206+256.219+267.281C253.759+271.229+251.108+275.143+248.344+279.25C210.48+315.608+180.886+362.101+167.875+413.188C155.192+462.987+160.239+519.656+190.625+562.344C199.3+574.531+209.911+585.47+222.094+594.094C217.806+604.754+215.862+615.967+217.156+627.531C217.992+635.004+220.065+652.386+229.844+653.906C234.937+654.698+239.267+649.615+242.969+646.906C249.147+642.387+255.466+638.103+261.562+633.469C266.056+630.054+272.526+624.245+273.844+618.125C278.462+618.947+283.145+619.235+287.875+618.75C288.461+622.079+289.189+625.394+290.062+628.688C294.155+644.133+301.151+660.763+311.656+673C315.55+677.536+321.299+680.37+327.062+677.406C334.437+673.614+335.167+665.051+339.219+658.719C346.635+647.127+362.15+641.948+362.562+626.25C362.593+625.089+362.512+623.941+362.375+622.812C362.452+622.834+362.544+622.859+362.625+622.875C373.812+625.163+385.781+624.656+397.125+624.125C408.74+623.581+420.321+622.495+431.844+620.938C439.889+619.849+448.011+618.575+456.094+617.031C456.099+617.049+456.089+617.076+456.094+617.094C460.594+632.215+476.945+647.419+493.562+646.312C500.842+645.827+507.04+641.521+508.562+634.125C509.683+628.681+508.114+623.156+507.844+617.719C514.092+626.188+521.832+633.573+530.688+639.281C536.838+643.245+544.382+646.425+551.688+643.812C557.248+641.823+561.513+636.654+561.125+630.562C560.707+624.002+552.613+619.099+556.281+612.531C559.665+606.471+564.299+602.551+564.344+595.062C564.387+587.981+561.394+581.999+556.812+577.344C602.471+559.134+640.766+521.884+661.188+477.219C663.661+471.804+666.192+464.903+662.312+459.5C659.463+455.53+654.178+453.801+649.938+456.531C649.106+457.066+648.747+457.854+648.75+458.625C645.531+460.078+642.509+462.732+639.875+464.656C635.258+468.028+630.653+471.42+625.875+474.562C616.255+480.891+605.938+486.358+594.844+489.594C577.921+494.531+558.898+493.573+544.594+483.25C544.552+483.113+544.476+482.986+544.406+482.844C538.696+471.278+531.487+460.355+524.156+449.75C517.041+439.457+509.32+429.516+500.594+420.531C484.529+403.99+465.001+391.684+442.75+385.406C400.077+373.365+352.707+383.187+319.219+412.406C308.666+421.613+298.199+432.972+284.062+436.344C274.561+438.611+262.725+436.543+256.656+428.719C256.687+428.56+256.698+428.404+256.656+428.219C254.359+418.234+252.383+408.465+253.031+398.156C253.657+388.181+255.97+378.397+259.5+369.062C266.711+349.994+278.419+333.078+289.125+315.875C310.224+281.973+328.216+247.117+335.531+207.5C337.534+196.649+338.128+185.781+337.156+174.781C336.217+164.156+335.024+151.795+328.875+142.844C324.59+130.858+316.398+119.867+307.094+111.406C309.975+110.494+312.625+108.964+314.781+106.562C318.986+101.879+319.458+97.4645+316.906+91.8125C314.116+85.6325+308.21+81.415+303.312+77C299.293+73.377+295.215+69.8123+290.75+66.7812C294.505+66.6962+295.542+60.4177+291.562+59.8438C288.471+59.3967+285.411+58.8533+282.344+58.2812C286.032+55.6382+289.291+52.442+291.844+48.75C292.353+48.014+292.339+46.7692+291.844+46.0312C291.649+45.7392+291.501+45.5567+291.219+45.3438C291.107+45.2597+290.986+45.1465+290.875+45.0625C290.105+44.4785+288.976+44.6635+288.188+45.0625C284.873+46.7445+281.611+48.417+278.312+50C278.565+49.67+278.811+49.329+279.062+49C281.421+45.912+283.979+42.8537+285.156+39.0938C285.961+36.5217+282.973+34.576+280.781+35.75C277.323+37.604+274.736+40.8045+272.156+43.6875C271.704+44.1925+271.265+44.6825+270.812+45.1875C270.86+41.1815+270.817+36.7997+268.531+33.4688C268.013+32.7138+267.103+32.2138+266.188+32.1562ZM243.781+63.4688C242.693+64.3938+241.614+65.3693+240.562+66.4062C239.857+67.1013+239.587+67.8628+239.594+68.5938C237.651+70.1477+235.731+71.7417+233.781+73.2188C229.653+76.3468+226.819+79.6623+223.719+83.7812C220.75+87.7263+219.548+91.28+220.969+96.25C221.251+97.237+221.588+98.134+221.969+99C219.167+99.049+216.387+99.2843+213.719+99.9062C210.82+95.1243+205.692+91.035+204.781+85.5C203.521+77.84+209.774+75.778+215.688+73.25C224.426+69.515+234.058+65.8098+243.781+63.4688ZM286.688+66.8125C291.44+69.6345+295.785+73.1042+299.906+76.7812C304.369+80.7633+312.234+86.8867+313.656+92.9688C315.708+101.75+306.191+102.723+299.094+102.75C299.677+101.45+300.014+100.115+299.969+98.75C299.78+92.982+300.797+88.7068+297.625+83.5938C294.414+78.4167+289.084+74.7988+284.469+70.9688C283.666+70.3018+282.867+69.6358+282.062+68.9688C281.627+68.2757+281.144+67.5862+280.656+66.9062C282.666+66.8502+284.677+66.8345+286.688+66.8125ZM252.25+67.0625C251.606+70.0685+250.957+73.082+250.781+76.125C250.524+80.55+256.52+80.6148+257.938+77.0938C258.902+74.6997+259.533+72.1528+260.125+69.5938C261.476+72.3597+262.94+75.0482+264.688+77.6562C266.093+79.7523+270.384+79.2768+270+76.2188C269.651+73.4397+269.113+70.7468+268.469+68.0938C269.249+68.3617+270.024+68.6825+270.781+69.0625C273.558+70.4545+275.779+71.7395+277.906+74.0625C279.034+75.2955+280.557+75.2048+281.688+74.4688C284.638+76.5047+287.562+78.553+290.375+80.75C292.878+82.705+295.315+84.897+295.938+88.125C296.314+90.074+296.308+92.9285+294.594+94.3125C293.891+94.8805+292.634+94.894+291.844+95.375C288.596+97.354+285.166+101.871+283.906+105.531C282.378+105.447+280.887+105.331+279.5+105.156C271.705+104.174+263.977+102.608+256.281+101.062C248.898+99.5795+241.05+99.4452+233.5+99.2812C230.864+93.4913+228.574+86.4578+231.844+81.5938C234.552+77.5658+238.824+74.8395+242.5+71.6875C243.126+71.7825+243.778+71.7093+244.438+71.4062C247.216+70.1293+249.714+68.7035+252.25+67.0625Z" opacity="1" fill="#000000"/>
<path d="M205.999+157.054C205.999+157.054+219.391+149.606+236.348+155.796C249.011+160.419+247.453+165.064+247.453+165.064C247.453+165.064+239.274+170.003+230.228+168.955C221.182+167.907+205.999+157.054+205.999+157.054Z" opacity="1" fill="#ffffff"/>
<path d="M206.327+157.147C206.628+157.448+208.041+154.766+222.991+156.671C237.941+158.575+247.463+163.432+247.463+164.194C247.463+164.956+247.368+165.241+247.463+164.956C247.558+164.67+254.51+159.147+253.653+154.196C252.796+149.244+248.797+145.721+241.56+147.435C234.323+149.149+234.323+152.196+229.752+151.53C225.181+150.863+222.325+150.102+218.611+145.531C214.897+140.96+210.707+137.627+205.946+140.198C201.185+142.768+197.757+148.577+206.327+157.147Z" opacity="1" fill="#ffffff"/>
</g>
</svg>
