<?xml version="1.0" encoding="UTF-8" standalone="no"?> <!-- Created with Vectornator for iOS (http://vectornator.io/) --><!DOCTYPE svg PUBLIC "-//W3C//DTD SVG 1.1//EN" "http://www.w3.org/Graphics/SVG/1.1/DTD/svg11.dtd">
<svg style="fill-rule:evenodd;clip-rule:evenodd;stroke-linecap:round;stroke-linejoin:round;" xmlns:vectornator="http://vectornator.io" xmlns:xlink="http://www.w3.org/1999/xlink" xmlns="http://www.w3.org/2000/svg" xml:space="preserve" version="1.1" viewBox="0 0 505.191 574.844">
<metadata>
<vectornator:setting key="DisplayWhiteBackground" value="0"/>
<vectornator:setting key="RulersVisible" value="0"/>
<vectornator:setting key="Units" value="Points"/>
<vectornator:setting key="DynamicGuides" value="1"/>
<vectornator:setting key="GuidesVisible" value="1"/>
<vectornator:setting key="CMYKEnabledKey" value="0"/>
<vectornator:setting key="DimensionsVisible" value="1"/>
<vectornator:setting key="SnapToGuides" value="1"/>
<vectornator:setting key="GridSpacing" value="36"/>
</metadata>
<defs/>
<g id="Untitled" vectornator:layerName="Untitled">
<path d="M113.534+0.0588844C108.381-0.102187+102.87+0.068059+97.0338+0.558884C79.9166+1.99834+61.1373+6.20844+43.3776+11.7776C42.4445+12.796+41.5283+13.8082+40.7526+14.8714C26.1136+29.5904+29.0431+55.8999+43.6901+69.4339C62.4831+86.7989+89.412+86.0606+113.065+80.4026C115.048+87.6196+113.883+96.9231+113.346+104.09C112.663+113.204+111.145+122.232+109.034+131.121C106.35+142.421+102.445+153.445+97.2213+163.809C97.1835+163.884+97.1343+163.953+97.0963+164.028C94.6368+167.976+91.986+171.89+89.2213+175.996C51.3573+212.355+21.7631+258.848+8.75257+309.934C-3.93043+359.733+1.11657+416.402+31.5026+459.09C40.1776+471.277+50.7883+482.216+62.9713+490.84C58.6833+501.5+56.7398+512.713+58.0338+524.278C58.8698+531.751+60.9423+549.133+70.7213+550.653C75.8143+551.445+80.1443+546.361+83.8463+543.653C90.0243+539.134+96.344+534.849+102.44+530.215C106.933+526.8+113.403+520.991+114.721+514.871C119.339+515.693+124.023+515.981+128.753+515.496C129.339+518.825+130.067+522.14+130.94+525.434C135.032+540.879+142.029+557.51+152.534+569.746C156.428+574.282+162.177+577.116+167.94+574.153C175.314+570.361+176.044+561.797+180.096+555.465C187.512+543.873+203.028+538.694+203.44+522.996C203.471+521.835+203.39+520.688+203.253+519.559C203.33+519.58+203.422+519.605+203.503+519.621C214.69+521.909+226.659+521.402+238.003+520.871C249.618+520.327+261.198+519.242+272.721+517.684C280.766+516.596+288.888+515.322+296.971+513.778C296.976+513.796+296.966+513.822+296.971+513.84C301.471+528.961+317.823+544.166+334.44+543.059C341.719+542.574+347.918+538.267+349.44+530.871C350.56+525.427+348.991+519.902+348.721+514.465C354.969+522.934+362.709+530.319+371.565+536.028C377.715+539.992+385.259+543.172+392.565+540.559C398.126+538.57+402.39+533.4+402.003+527.309C401.585+520.749+393.491+515.846+397.159+509.278C400.543+503.218+405.176+499.298+405.221+491.809C405.264+484.728+402.271+478.745+397.69+474.09C443.348+455.88+481.644+418.63+502.065+373.965C504.539+368.55+507.069+361.649+503.19+356.246C500.34+352.276+495.055+350.548+490.815+353.278C489.984+353.813+489.625+354.6+489.628+355.371C486.409+356.824+483.387+359.479+480.753+361.403C476.136+364.775+471.53+368.166+466.753+371.309C457.133+377.637+446.815+383.104+435.721+386.34C418.798+391.277+399.775+390.319+385.471+379.996C385.429+379.859+385.354+379.732+385.284+379.59C379.574+368.024+372.365+357.101+365.034+346.496C357.919+336.203+350.198+326.262+341.471+317.278C325.406+300.737+305.879+288.431+283.628+282.153C240.955+270.112+193.585+279.934+160.096+309.153C149.543+318.36+139.077+329.718+124.94+333.09C115.439+335.357+103.603+333.29+97.5338+325.465C97.5648+325.306+97.5759+325.15+97.5338+324.965C95.2368+314.98+93.2607+305.212+93.9088+294.903C94.5348+284.928+96.8477+275.144+100.378+265.809C107.589+246.741+119.297+229.824+130.003+212.621C151.102+178.719+169.094+143.864+176.409+104.246C178.412+93.3954+179.006+82.5276+178.034+71.5276C177.095+60.9026+175.902+48.5411+169.753+39.5901C165.996+29.0816+159.163+19.4407+151.284+11.4964C150.652+11.1832+149.982+10.9862+149.409+10.5276C141.231+3.98553+128.992+0.542095+113.534+0.0588844Z" opacity="1" fill="#000000"/>
</g>
</svg>
